<mxfile host="app.diagrams.net" modified="2023-10-03T14:04:39.792Z" agent="Mozilla/5.0 (Windows NT 10.0; Win64; x64) AppleWebKit/537.36 (KHTML, like Gecko) Chrome/117.0.0.0 Safari/537.36 Edg/117.0.2045.47" etag="qCDeL3D5o1teZm7Iot0o" version="22.0.2" type="device">
  <diagram name="Page-1" id="e7e014a7-5840-1c2e-5031-d8a46d1fe8dd">
    <mxGraphModel dx="1002" dy="543" grid="1" gridSize="10" guides="1" tooltips="1" connect="1" arrows="1" fold="1" page="1" pageScale="1" pageWidth="1169" pageHeight="826" background="none" math="0" shadow="0">
      <root>
        <mxCell id="0" />
        <mxCell id="1" parent="0" />
        <mxCell id="3" value="AparelhoTelefonico" style="swimlane;whiteSpace=wrap" parent="1" vertex="1">
          <mxGeometry x="380" y="120" width="280" height="382" as="geometry" />
        </mxCell>
        <mxCell id="13" value="" style="ellipse;shape=startState;fillColor=#000000;strokeColor=#ff0000;" parent="3" vertex="1">
          <mxGeometry x="125" y="40" width="30" height="30" as="geometry" />
        </mxCell>
        <mxCell id="14" value="" style="edgeStyle=elbowEdgeStyle;elbow=vertical;verticalAlign=bottom;endArrow=open;endSize=8;strokeColor=#FF0000;endFill=1;rounded=0" parent="3" source="13" target="15" edge="1">
          <mxGeometry x="40" y="20" as="geometry">
            <mxPoint x="55" y="90" as="targetPoint" />
          </mxGeometry>
        </mxCell>
        <mxCell id="15" value="aparelhoTelefonico" style="" parent="3" vertex="1">
          <mxGeometry x="70" y="110" width="110" height="50" as="geometry" />
        </mxCell>
        <mxCell id="16" value="ligar()&#xa;:void" style="" parent="3" vertex="1">
          <mxGeometry x="10" y="192" width="80" height="38" as="geometry" />
        </mxCell>
        <mxCell id="17" value="" style="endArrow=open;strokeColor=#FF0000;endFill=1;rounded=0" parent="3" target="16" edge="1">
          <mxGeometry relative="1" as="geometry">
            <mxPoint x="74.5" y="160" as="sourcePoint" />
            <mxPoint x="75" y="202" as="targetPoint" />
          </mxGeometry>
        </mxCell>
        <mxCell id="18" value="correioVoz()&#xa;:void" style="" parent="3" vertex="1">
          <mxGeometry x="70" y="242" width="110" height="50" as="geometry" />
        </mxCell>
        <mxCell id="19" value="" style="endArrow=open;strokeColor=#FF0000;endFill=1;rounded=0;exitX=0.5;exitY=1;exitDx=0;exitDy=0;" parent="3" source="15" target="18" edge="1">
          <mxGeometry relative="1" as="geometry" />
        </mxCell>
        <mxCell id="Hv0wLCCCTEPsuRkm6BLP-42" value="atender()&lt;br&gt;:void" style="rounded=0;whiteSpace=wrap;html=1;" vertex="1" parent="3">
          <mxGeometry x="181" y="193" width="90" height="38" as="geometry" />
        </mxCell>
        <mxCell id="Hv0wLCCCTEPsuRkm6BLP-43" value="" style="edgeStyle=elbowEdgeStyle;elbow=vertical;verticalAlign=bottom;endArrow=open;endSize=8;strokeColor=#FF0000;endFill=1;rounded=0;entryX=0.25;entryY=0;entryDx=0;entryDy=0;" edge="1" parent="3" target="Hv0wLCCCTEPsuRkm6BLP-42">
          <mxGeometry x="-340" y="-108" as="geometry">
            <mxPoint x="170" y="200" as="targetPoint" />
            <mxPoint x="170" y="160" as="sourcePoint" />
          </mxGeometry>
        </mxCell>
        <mxCell id="4" value="NavegadorInternet" style="swimlane;whiteSpace=wrap" parent="1" vertex="1">
          <mxGeometry x="680" y="120" width="280" height="380" as="geometry" />
        </mxCell>
        <mxCell id="Hv0wLCCCTEPsuRkm6BLP-47" value="" style="ellipse;shape=startState;fillColor=#000000;strokeColor=#ff0000;" vertex="1" parent="4">
          <mxGeometry x="120" y="40" width="30" height="30" as="geometry" />
        </mxCell>
        <mxCell id="Hv0wLCCCTEPsuRkm6BLP-48" value="" style="edgeStyle=elbowEdgeStyle;elbow=vertical;verticalAlign=bottom;endArrow=open;endSize=8;strokeColor=#FF0000;endFill=1;rounded=0" edge="1" parent="4" source="Hv0wLCCCTEPsuRkm6BLP-47" target="Hv0wLCCCTEPsuRkm6BLP-49">
          <mxGeometry x="-640" y="-108" as="geometry">
            <mxPoint x="55" y="90" as="targetPoint" />
          </mxGeometry>
        </mxCell>
        <mxCell id="Hv0wLCCCTEPsuRkm6BLP-49" value="navegadorInternet" style="" vertex="1" parent="4">
          <mxGeometry x="100" y="110" width="110" height="50" as="geometry" />
        </mxCell>
        <mxCell id="Hv0wLCCCTEPsuRkm6BLP-69" value="" style="edgeStyle=orthogonalEdgeStyle;rounded=0;orthogonalLoop=1;jettySize=auto;html=1;entryX=0;entryY=0.75;entryDx=0;entryDy=0;" edge="1" parent="4" source="Hv0wLCCCTEPsuRkm6BLP-50" target="Hv0wLCCCTEPsuRkm6BLP-52">
          <mxGeometry relative="1" as="geometry">
            <mxPoint x="150" y="302" as="targetPoint" />
          </mxGeometry>
        </mxCell>
        <mxCell id="Hv0wLCCCTEPsuRkm6BLP-50" value="exibirPagina(String url)&#xa;:void" style="" vertex="1" parent="4">
          <mxGeometry x="10" y="182" width="150" height="38" as="geometry" />
        </mxCell>
        <mxCell id="Hv0wLCCCTEPsuRkm6BLP-51" value="" style="endArrow=open;strokeColor=#FF0000;endFill=1;rounded=0" edge="1" parent="4" target="Hv0wLCCCTEPsuRkm6BLP-50">
          <mxGeometry relative="1" as="geometry">
            <mxPoint x="100" y="162" as="sourcePoint" />
            <mxPoint x="75" y="202" as="targetPoint" />
          </mxGeometry>
        </mxCell>
        <mxCell id="Hv0wLCCCTEPsuRkm6BLP-67" style="edgeStyle=orthogonalEdgeStyle;rounded=0;orthogonalLoop=1;jettySize=auto;html=1;entryX=0.5;entryY=0;entryDx=0;entryDy=0;" edge="1" parent="4" source="Hv0wLCCCTEPsuRkm6BLP-52" target="Hv0wLCCCTEPsuRkm6BLP-54">
          <mxGeometry relative="1" as="geometry">
            <mxPoint x="185" y="332" as="targetPoint" />
          </mxGeometry>
        </mxCell>
        <mxCell id="Hv0wLCCCTEPsuRkm6BLP-52" value="addNovaAba( String url)&#xa;:void" style="" vertex="1" parent="4">
          <mxGeometry x="110" y="232" width="150" height="40" as="geometry" />
        </mxCell>
        <mxCell id="Hv0wLCCCTEPsuRkm6BLP-53" value="" style="endArrow=open;strokeColor=#FF0000;endFill=1;rounded=0;exitX=1;exitY=1;exitDx=0;exitDy=0;" edge="1" parent="4" source="Hv0wLCCCTEPsuRkm6BLP-49" target="Hv0wLCCCTEPsuRkm6BLP-52">
          <mxGeometry relative="1" as="geometry">
            <mxPoint x="160" y="162" as="sourcePoint" />
            <Array as="points" />
          </mxGeometry>
        </mxCell>
        <mxCell id="Hv0wLCCCTEPsuRkm6BLP-54" value="atualizarPagina()&lt;br&gt;:void" style="rounded=0;whiteSpace=wrap;html=1;" vertex="1" parent="4">
          <mxGeometry x="100" y="312" width="120" height="38" as="geometry" />
        </mxCell>
        <mxCell id="Hv0wLCCCTEPsuRkm6BLP-66" style="edgeStyle=orthogonalEdgeStyle;rounded=0;orthogonalLoop=1;jettySize=auto;html=1;exitX=0.173;exitY=0.968;exitDx=0;exitDy=0;exitPerimeter=0;entryX=0;entryY=0.75;entryDx=0;entryDy=0;" edge="1" parent="4" source="Hv0wLCCCTEPsuRkm6BLP-50" target="Hv0wLCCCTEPsuRkm6BLP-54">
          <mxGeometry relative="1" as="geometry">
            <mxPoint x="70" y="332" as="targetPoint" />
          </mxGeometry>
        </mxCell>
        <mxCell id="Hv0wLCCCTEPsuRkm6BLP-56" value="ReprodutorMusical" style="swimlane;whiteSpace=wrap" vertex="1" parent="1">
          <mxGeometry x="40" y="120" width="280" height="382" as="geometry" />
        </mxCell>
        <mxCell id="Hv0wLCCCTEPsuRkm6BLP-57" value="" style="ellipse;shape=startState;fillColor=#000000;strokeColor=#ff0000;" vertex="1" parent="Hv0wLCCCTEPsuRkm6BLP-56">
          <mxGeometry x="100" y="40" width="30" height="30" as="geometry" />
        </mxCell>
        <mxCell id="Hv0wLCCCTEPsuRkm6BLP-58" value="" style="edgeStyle=elbowEdgeStyle;elbow=vertical;verticalAlign=bottom;endArrow=open;endSize=8;strokeColor=#FF0000;endFill=1;rounded=0" edge="1" parent="Hv0wLCCCTEPsuRkm6BLP-56" source="Hv0wLCCCTEPsuRkm6BLP-57" target="Hv0wLCCCTEPsuRkm6BLP-59">
          <mxGeometry x="40" y="20" as="geometry">
            <mxPoint x="55" y="90" as="targetPoint" />
          </mxGeometry>
        </mxCell>
        <mxCell id="Hv0wLCCCTEPsuRkm6BLP-59" value="reprodutorMusical" style="" vertex="1" parent="Hv0wLCCCTEPsuRkm6BLP-56">
          <mxGeometry x="70" y="110" width="110" height="50" as="geometry" />
        </mxCell>
        <mxCell id="Hv0wLCCCTEPsuRkm6BLP-60" value="tocar()&#xa;:void" style="" vertex="1" parent="Hv0wLCCCTEPsuRkm6BLP-56">
          <mxGeometry x="10" y="192" width="80" height="38" as="geometry" />
        </mxCell>
        <mxCell id="Hv0wLCCCTEPsuRkm6BLP-61" value="" style="endArrow=open;strokeColor=#FF0000;endFill=1;rounded=0" edge="1" parent="Hv0wLCCCTEPsuRkm6BLP-56" target="Hv0wLCCCTEPsuRkm6BLP-60">
          <mxGeometry relative="1" as="geometry">
            <mxPoint x="74.5" y="160" as="sourcePoint" />
            <mxPoint x="75" y="202" as="targetPoint" />
          </mxGeometry>
        </mxCell>
        <mxCell id="Hv0wLCCCTEPsuRkm6BLP-62" value="selecionarMusica( String musica)&#xa;:void" style="" vertex="1" parent="Hv0wLCCCTEPsuRkm6BLP-56">
          <mxGeometry x="70" y="242" width="190" height="50" as="geometry" />
        </mxCell>
        <mxCell id="Hv0wLCCCTEPsuRkm6BLP-63" value="" style="endArrow=open;strokeColor=#FF0000;endFill=1;rounded=0;exitX=0.5;exitY=1;exitDx=0;exitDy=0;" edge="1" parent="Hv0wLCCCTEPsuRkm6BLP-56" source="Hv0wLCCCTEPsuRkm6BLP-59" target="Hv0wLCCCTEPsuRkm6BLP-62">
          <mxGeometry relative="1" as="geometry" />
        </mxCell>
        <mxCell id="Hv0wLCCCTEPsuRkm6BLP-64" value="pausar()&lt;br&gt;:void" style="rounded=0;whiteSpace=wrap;html=1;" vertex="1" parent="Hv0wLCCCTEPsuRkm6BLP-56">
          <mxGeometry x="181" y="193" width="90" height="38" as="geometry" />
        </mxCell>
        <mxCell id="Hv0wLCCCTEPsuRkm6BLP-65" value="" style="edgeStyle=elbowEdgeStyle;elbow=vertical;verticalAlign=bottom;endArrow=open;endSize=8;strokeColor=#FF0000;endFill=1;rounded=0;entryX=0.25;entryY=0;entryDx=0;entryDy=0;" edge="1" parent="Hv0wLCCCTEPsuRkm6BLP-56" target="Hv0wLCCCTEPsuRkm6BLP-64">
          <mxGeometry x="-340" y="-108" as="geometry">
            <mxPoint x="170" y="200" as="targetPoint" />
            <mxPoint x="170" y="160" as="sourcePoint" />
          </mxGeometry>
        </mxCell>
      </root>
    </mxGraphModel>
  </diagram>
</mxfile>
